<mxfile host="Chrome" modified="2023-05-25T15:50:19.411Z" agent="Mozilla/5.0 (Macintosh; Intel Mac OS X 10_15_7) AppleWebKit/537.36 (KHTML, like Gecko) Chrome/101.0.0.0 Safari/537.36" version="21.2.7" etag="6uRHgUz7IZ0qJPMOUlmc" type="device">
  <diagram id="L2rWemizjG2ZnGc5dkup" name="第 1 页">
    <mxGraphModel dx="1434" dy="854" grid="1" gridSize="10" guides="1" tooltips="1" connect="1" arrows="1" fold="1" page="1" pageScale="1" pageWidth="827" pageHeight="1169" math="0" shadow="0">
      <root>
        <mxCell id="0" />
        <mxCell id="1" parent="0" />
        <mxCell id="Jx3MtmwUkea4iuwqXw0A-5" value="&lt;p style=&quot;margin:0px;margin-top:4px;text-align:center;&quot;&gt;&lt;i&gt;&amp;lt;&amp;lt;Interface&amp;gt;&amp;gt;&lt;/i&gt;&lt;br&gt;&lt;b&gt;Product&lt;/b&gt;&lt;/p&gt;&lt;hr size=&quot;1&quot;&gt;&lt;p style=&quot;margin:0px;margin-left:4px;&quot;&gt;+ func1()&lt;/p&gt;&lt;p style=&quot;margin:0px;margin-left:4px;&quot;&gt;+ func2()&lt;/p&gt;" style="verticalAlign=top;align=left;overflow=fill;fontSize=12;fontFamily=Helvetica;html=1;whiteSpace=wrap;" vertex="1" parent="1">
          <mxGeometry x="730" y="130" width="180" height="90" as="geometry" />
        </mxCell>
        <mxCell id="Jx3MtmwUkea4iuwqXw0A-8" style="edgeStyle=orthogonalEdgeStyle;rounded=0;orthogonalLoop=1;jettySize=auto;html=1;exitX=0.5;exitY=0;exitDx=0;exitDy=0;entryX=0.5;entryY=1;entryDx=0;entryDy=0;dashed=1;endArrow=block;endFill=0;endSize=14;" edge="1" parent="1" source="Jx3MtmwUkea4iuwqXw0A-6" target="Jx3MtmwUkea4iuwqXw0A-5">
          <mxGeometry relative="1" as="geometry" />
        </mxCell>
        <mxCell id="Jx3MtmwUkea4iuwqXw0A-6" value="&lt;p style=&quot;margin:0px;margin-top:4px;text-align:center;&quot;&gt;&lt;b&gt;ConcreteProduct1&lt;/b&gt;&lt;/p&gt;&lt;hr size=&quot;1&quot;&gt;&lt;p style=&quot;margin:0px;margin-left:4px;&quot;&gt;+ func1()&lt;/p&gt;&lt;p style=&quot;margin:0px;margin-left:4px;&quot;&gt;+ func2()&lt;/p&gt;" style="verticalAlign=top;align=left;overflow=fill;fontSize=12;fontFamily=Helvetica;html=1;whiteSpace=wrap;" vertex="1" parent="1">
          <mxGeometry x="570" y="310" width="180" height="70" as="geometry" />
        </mxCell>
        <mxCell id="Jx3MtmwUkea4iuwqXw0A-9" style="edgeStyle=orthogonalEdgeStyle;rounded=0;orthogonalLoop=1;jettySize=auto;html=1;exitX=0.5;exitY=0;exitDx=0;exitDy=0;entryX=0.5;entryY=1;entryDx=0;entryDy=0;dashed=1;endArrow=block;endFill=0;endSize=14;" edge="1" parent="1" source="Jx3MtmwUkea4iuwqXw0A-7" target="Jx3MtmwUkea4iuwqXw0A-5">
          <mxGeometry relative="1" as="geometry" />
        </mxCell>
        <mxCell id="Jx3MtmwUkea4iuwqXw0A-7" value="&lt;p style=&quot;margin:0px;margin-top:4px;text-align:center;&quot;&gt;&lt;b&gt;ConcreteProduct2&lt;/b&gt;&lt;/p&gt;&lt;hr size=&quot;1&quot;&gt;&lt;p style=&quot;margin:0px;margin-left:4px;&quot;&gt;+ func1()&lt;/p&gt;&lt;p style=&quot;margin:0px;margin-left:4px;&quot;&gt;+ func2()&lt;/p&gt;" style="verticalAlign=top;align=left;overflow=fill;fontSize=12;fontFamily=Helvetica;html=1;whiteSpace=wrap;" vertex="1" parent="1">
          <mxGeometry x="900" y="310" width="180" height="70" as="geometry" />
        </mxCell>
        <mxCell id="Jx3MtmwUkea4iuwqXw0A-10" value="&lt;p style=&quot;margin:0px;margin-top:4px;text-align:center;&quot;&gt;&lt;i&gt;&amp;lt;&amp;lt;Interface&amp;gt;&amp;gt;&lt;/i&gt;&lt;br&gt;&lt;b&gt;Factory&lt;/b&gt;&lt;/p&gt;&lt;hr size=&quot;1&quot;&gt;&lt;p style=&quot;margin:0px;margin-left:4px;&quot;&gt;+ createProduct(): Product&lt;/p&gt;" style="verticalAlign=top;align=left;overflow=fill;fontSize=12;fontFamily=Helvetica;html=1;whiteSpace=wrap;" vertex="1" parent="1">
          <mxGeometry x="200" y="130" width="180" height="90" as="geometry" />
        </mxCell>
        <mxCell id="Jx3MtmwUkea4iuwqXw0A-11" style="edgeStyle=orthogonalEdgeStyle;rounded=0;orthogonalLoop=1;jettySize=auto;html=1;exitX=0.5;exitY=0;exitDx=0;exitDy=0;entryX=0.5;entryY=1;entryDx=0;entryDy=0;dashed=1;endArrow=block;endFill=0;endSize=14;" edge="1" parent="1" source="Jx3MtmwUkea4iuwqXw0A-12" target="Jx3MtmwUkea4iuwqXw0A-10">
          <mxGeometry relative="1" as="geometry" />
        </mxCell>
        <mxCell id="Jx3MtmwUkea4iuwqXw0A-15" style="edgeStyle=orthogonalEdgeStyle;rounded=0;orthogonalLoop=1;jettySize=auto;html=1;exitX=0.5;exitY=1;exitDx=0;exitDy=0;entryX=0.5;entryY=1;entryDx=0;entryDy=0;curved=1;" edge="1" parent="1" source="Jx3MtmwUkea4iuwqXw0A-12" target="Jx3MtmwUkea4iuwqXw0A-6">
          <mxGeometry relative="1" as="geometry">
            <Array as="points">
              <mxPoint x="140" y="480" />
              <mxPoint x="660" y="480" />
            </Array>
          </mxGeometry>
        </mxCell>
        <mxCell id="Jx3MtmwUkea4iuwqXw0A-12" value="&lt;p style=&quot;margin:0px;margin-top:4px;text-align:center;&quot;&gt;&lt;b&gt;ConcreteFactory1&lt;/b&gt;&lt;/p&gt;&lt;hr size=&quot;1&quot;&gt;&lt;p style=&quot;margin:0px;margin-left:4px;&quot;&gt;+ createProduct(): ConcreteProduct1&lt;/p&gt;" style="verticalAlign=top;align=left;overflow=fill;fontSize=12;fontFamily=Helvetica;html=1;whiteSpace=wrap;" vertex="1" parent="1">
          <mxGeometry x="20" y="310" width="210" height="60" as="geometry" />
        </mxCell>
        <mxCell id="Jx3MtmwUkea4iuwqXw0A-13" style="edgeStyle=orthogonalEdgeStyle;rounded=0;orthogonalLoop=1;jettySize=auto;html=1;exitX=0.5;exitY=0;exitDx=0;exitDy=0;entryX=0.5;entryY=1;entryDx=0;entryDy=0;dashed=1;endArrow=block;endFill=0;endSize=14;" edge="1" parent="1" source="Jx3MtmwUkea4iuwqXw0A-14" target="Jx3MtmwUkea4iuwqXw0A-10">
          <mxGeometry relative="1" as="geometry" />
        </mxCell>
        <mxCell id="Jx3MtmwUkea4iuwqXw0A-16" style="edgeStyle=orthogonalEdgeStyle;rounded=0;orthogonalLoop=1;jettySize=auto;html=1;exitX=0.5;exitY=1;exitDx=0;exitDy=0;entryX=0.5;entryY=1;entryDx=0;entryDy=0;curved=1;" edge="1" parent="1" source="Jx3MtmwUkea4iuwqXw0A-14" target="Jx3MtmwUkea4iuwqXw0A-7">
          <mxGeometry relative="1" as="geometry">
            <Array as="points">
              <mxPoint x="400" y="480" />
              <mxPoint x="990" y="480" />
            </Array>
          </mxGeometry>
        </mxCell>
        <mxCell id="Jx3MtmwUkea4iuwqXw0A-14" value="&lt;p style=&quot;margin:0px;margin-top:4px;text-align:center;&quot;&gt;&lt;b&gt;ConcreteFactory2&lt;/b&gt;&lt;/p&gt;&lt;hr size=&quot;1&quot;&gt;&lt;p style=&quot;margin:0px;margin-left:4px;&quot;&gt;+ createProduct(): ConcreteProduct2&lt;br&gt;&lt;/p&gt;" style="verticalAlign=top;align=left;overflow=fill;fontSize=12;fontFamily=Helvetica;html=1;whiteSpace=wrap;" vertex="1" parent="1">
          <mxGeometry x="280" y="305" width="220" height="70" as="geometry" />
        </mxCell>
      </root>
    </mxGraphModel>
  </diagram>
</mxfile>
